<svg id="Capa_1" dataname="Capa 1" xmlns="http://www.w3.org/2000/svg" viewBox="0 0 309.72 312.26"><defs><style>.cls-1{fill:#8aaaa5;}.cls-2{fill:#fff;}</style></defs><circle class="cls-1" cx="154.54" cy="155.63" r="153"/><path class="cls-2" d="M129.08,84.13h33.49V219h-23.1V114.28l.93,5.94L114.61,204H92.16l-25.8-81.92.93-7.79V219H44.19V84.13H77.68l25.7,90.92Z"/><path class="cls-2" d="M197.49,214.52a39.23,39.23,0,0,1-16.7-17.16Q175,186.09,175,170.13v-37q0-15.95,5.76-27.22a39.51,39.51,0,0,1,16.7-17.21q10.94-5.94,26.34-5.94a46.6,46.6,0,0,1,22.73,5.47,44.82,44.82,0,0,1,16.56,15.91q6.54,10.44,9.05,25.19H245.82a34.1,34.1,0,0,0-4.59-11.41,22.05,22.05,0,0,0-7.52-7.24,19.61,19.61,0,0,0-9.88-2.5,23.71,23.71,0,0,0-12.15,2.92,18.87,18.87,0,0,0-7.65,8.54,31.33,31.33,0,0,0-2.65,13.49v37A31,31,0,0,0,204,183.58a19,19,0,0,0,7.65,8.49A23.71,23.71,0,0,0,223.83,195a20.37,20.37,0,0,0,10-2.45,21.12,21.12,0,0,0,7.52-7.19,33.46,33.46,0,0,0,4.45-11.51h26.35Q269.58,188.6,263,199a44.91,44.91,0,0,1-16.51,15.91,46.36,46.36,0,0,1-22.69,5.47Q208.44,220.41,197.49,214.52Z"/></svg>